<!DOCTYPE svg PUBLIC "-//W3C//DTD SVG 1.1//EN" "http://www.w3.org/Graphics/SVG/1.1/DTD/svg11.dtd">

<!-- Uploaded to: SVG Repo, www.svgrepo.com, Transformed by: SVG Repo Mixer Tools -->
<svg fill="#0f172a" width="50px" height="50px" viewBox="-2.4 -2.4 28.80 28.80" xmlns="http://www.w3.org/2000/svg" stroke="#0f172a" stroke-width="0.00024000000000000003" transform="matrix(1, 0, 0, 1, 0, 0)rotate(0)">

<g id="SVGRepo_bgCarrier" stroke-width="0" transform="translate(0,0), scale(1)"/>

<g id="SVGRepo_tracerCarrier" stroke-linecap="round" stroke-linejoin="round" stroke="#CCCCCC" stroke-width="0.144"/>

<g id="SVGRepo_iconCarrier">

<path d="M4,6A1,1,0,0,1,5,5H6.333l.439-1.316A1,1,0,0,1,7.721,3H13a1,1,0,0,1,1-1h1a1,1,0,0,1,1,1h.279a1,1,0,0,1,.949.684L17.667,5H19a1,1,0,0,1,0,2H5A1,1,0,0,1,4,6ZM15.142,22H8.858a1,1,0,0,1-.988-.848L6,9H18L16.13,21.152A1,1,0,0,1,15.142,22ZM14,15.5a2,2,0,1,0-2,2A2,2,0,0,0,14,15.5Z"/>

</g>

</svg>